<svg xmlns="http://www.w3.org/2000/svg" viewBox="0 0 500 500">
  <style>
    .i{fill:none;stroke:#111;stroke-width:7;stroke-linecap:round;stroke-linejoin:round}
    .f{fill:#111}
  </style>

  <!-- row 1: cat, heart, ribbon, firework, paper-cut pattern -->
  <g transform="translate(0 0)" class="i">
    <path d="M25 43 29 20 44 34h12l15-14 4 23v19c0 14-11 24-25 24S25 76 25 62Z"/>
    <path d="M39 58h1m20 0h1M40 70c7 6 13 6 20 0"/>
  </g>
  <g transform="translate(100 0)" class="i">
    <path d="M50 83 21 55C3 36 27 15 43 31l7 8 7-8c16-16 40 5 22 24Z"/>
  </g>
  <g transform="translate(200 0)" class="i">
    <circle cx="50" cy="50" r="13"/>
    <path d="M38 43C23 26 12 28 13 42c1 12 12 15 25 13M62 43c15-17 26-15 25-1-1 12-12 15-25 13M43 62 31 86l19-8 19 8-12-24"/>
  </g>
  <g transform="translate(300 0)" class="i">
    <path d="M50 14v17M50 69v17M14 50h17M69 50h17M24 24l12 12M64 64l12 12M76 24 64 36M36 64 24 76"/>
    <circle cx="50" cy="50" r="9"/>
  </g>
  <g transform="translate(400 0)" class="i">
    <path d="M50 12 63 36l25 14-25 14-13 24-13-24-25-14 25-14Z"/>
    <path d="M50 31v38M31 50h38"/>
  </g>

  <!-- row 2: shield, erhu, monument, skier, gift -->
  <g transform="translate(0 100)" class="i">
    <path d="M50 13c10 8 21 11 32 12v25c0 19-12 31-32 39-20-8-32-20-32-39V25c11-1 22-4 32-12Z"/>
    <path d="m34 51 11 11 22-25"/>
  </g>
  <g transform="translate(100 100)" class="i">
    <path d="M57 15v62c0 10-8 15-16 10-8-6-3-17 7-17h9M50 24h18M67 20v63M35 18l13 14"/>
  </g>
  <g transform="translate(200 100)" class="i">
    <path d="M50 10v75M35 18h30M29 28h42M34 38h32M28 85h44"/>
    <path d="M38 38v12l-15 8M62 38v12l15 8"/>
  </g>
  <g transform="translate(300 100)" class="i">
    <circle cx="58" cy="22" r="9"/>
    <path d="m53 34-13 20 18 13M41 52 23 47M52 37l19 15 13-4M20 78c21 6 43 7 66 2M31 73 18 84M68 70l17 13"/>
  </g>
  <g transform="translate(400 100)" class="i">
    <rect x="18" y="38" width="64" height="47" rx="3"/>
    <path d="M50 38v47M14 38h72V25H14ZM50 25c-15-19-31-5-21 5 6 6 15 5 21-5Zm0 0c15-19 31-5 21 5-6 6-15 5-21-5Z"/>
  </g>

  <!-- row 3: opera mask, snake, dragon, drum, sunset -->
  <g transform="translate(0 200)" class="i">
    <path d="M22 21c17-10 39-10 56 0v37c0 17-13 30-28 31-15-1-28-14-28-31Z"/>
    <path d="m28 42 16-8-6 18Zm44 0-16-8 6 18ZM38 68c8 8 16 8 24 0M50 31v29"/>
  </g>
  <g transform="translate(100 200)" class="i">
    <path d="M77 19c-26-9-49 6-43 24 5 14 25 6 27 22 2 14-17 17-33 8"/>
    <path d="m77 19 10-6-3 12M28 73l-12 5 9 7"/>
    <circle cx="72" cy="20" r="2" class="f"/>
  </g>
  <g transform="translate(200 200)" class="i">
    <path d="M16 61c9-27 30-31 47-18 14 11 21 4 22-11M27 66c13 12 30 13 42 1M45 39l-7-15 15 8M68 42l10-13 2 17"/>
    <path d="M82 28 89 16M83 29l11 3"/>
  </g>
  <g transform="translate(300 200)" class="i">
    <ellipse cx="50" cy="29" rx="29" ry="12"/>
    <path d="M21 29v45c13 13 45 13 58 0V29M29 47h42M35 53v14M50 51v19M65 53v14"/>
  </g>
  <g transform="translate(400 200)" class="i">
    <path d="M17 72h66M24 72c3-25 13-38 26-38s23 13 26 38M50 12v12M21 25l10 9M79 25l-10 9"/>
  </g>

  <!-- row 4: flag, bridge, ruyi, rope, steps -->
  <g transform="translate(0 300)" class="i">
    <path d="M26 88V13M28 19c20-10 30 12 51 1v38c-21 11-31-11-51-1"/>
  </g>
  <g transform="translate(100 300)" class="i">
    <path d="M11 71h78M19 70c6-34 56-34 62 0M28 68V54M50 68V43M72 68V54M15 82c20-7 48-7 70 0"/>
  </g>
  <g transform="translate(200 300)" class="i">
    <path d="M66 16c18 5 20 24 7 35-10 9-24 4-25-7-1-9 9-15 17-9 9 7 2 22-8 31L35 87"/>
    <path d="m35 87-19-8 13-15 16 12"/>
  </g>
  <g transform="translate(300 300)" class="i">
    <path d="M20 28c38-22 64 1 50 18-11 13-40-2-45 15-4 14 17 23 52 9"/>
    <path d="M17 23 30 35M70 65l12 12"/>
  </g>
  <g transform="translate(400 300)" class="i">
    <path d="M15 84h70V69H28V54h45V39H40V24h35"/>
  </g>

  <!-- row 5: pine, panda, sun, moon, fan -->
  <g transform="translate(0 400)" class="i">
    <path d="M50 11 27 42h14L20 68h24v21h12V68h24L59 42h14Z"/>
  </g>
  <g transform="translate(100 400)" class="i">
    <circle cx="31" cy="27" r="12"/><circle cx="69" cy="27" r="12"/>
    <circle cx="50" cy="54" r="34"/>
    <ellipse cx="37" cy="49" rx="9" ry="13"/><ellipse cx="63" cy="49" rx="9" ry="13"/>
    <path d="M44 69c4 4 8 4 12 0"/>
  </g>
  <g transform="translate(200 400)" class="i">
    <circle cx="50" cy="50" r="19"/>
    <path d="M50 10v13M50 77v13M10 50h13M77 50h13M22 22l10 10M68 68l10 10M78 22 68 32M32 68 22 78"/>
  </g>
  <g transform="translate(300 400)" class="i">
    <path d="M71 16c-35 7-43 54-12 70-31 5-50-15-47-38 3-26 28-42 59-32Z"/>
  </g>
  <g transform="translate(400 400)" class="i">
    <path d="M50 82 14 49c20-29 52-29 72 0Z"/>
    <path d="M50 82V24M50 82 28 34M50 82l22-48M14 49h72"/>
  </g>
</svg>
